<svg width="28" height="28" viewBox="0 0 28 28" fill="none" xmlns="http://www.w3.org/2000/svg">
<path d="M13.0361 26.9716C13.5373 27.0368 14.048 27.0751 14.5533 27.0879L14.7591 19.7659C14.5329 19.7608 14.3094 19.7429 14.09 19.7148L13.0361 26.9716Z" fill="#2D2D2D"/>
<path d="M9.15253 15.8965L1.81348 18.2988C1.98009 18.7522 2.1765 19.2005 2.39459 19.6334L9.40583 16.4814C9.30965 16.2924 9.22567 16.097 9.15253 15.8965Z" fill="#2D2D2D"/>
<path d="M1.12109 12.6401L8.84619 13.3975C8.86922 13.1855 8.9058 12.9773 8.95321 12.773L1.36356 11.2148C1.2552 11.6836 1.17392 12.1625 1.12109 12.6389V12.6401Z" fill="#2D2D2D"/>
<path d="M8.82581 14.3496L1.07227 14.7864C1.10207 15.2615 1.16031 15.7392 1.2443 16.2079L8.90302 14.9805C8.86509 14.7736 8.83936 14.5642 8.82581 14.3509V14.3496Z" fill="#2D2D2D"/>
<path d="M11.0516 18.4609L6.125 24.1213C6.51512 24.424 6.92826 24.7088 7.35224 24.9693L11.5947 18.8351C11.4065 18.7189 11.2249 18.595 11.0516 18.4609Z" fill="#2D2D2D"/>
<path d="M12.4805 19.2871L9.3623 25.9947C9.82828 26.1876 10.3105 26.3574 10.7968 26.5005L13.1077 19.5093C12.8923 19.4468 12.6837 19.3714 12.4792 19.2871H12.4805Z" fill="#2D2D2D"/>
<path d="M9.91432 17.3027L3.54785 21.4995C3.83773 21.8903 4.15334 22.2696 4.48657 22.6285L10.3288 17.8021C10.1812 17.6437 10.043 17.4777 9.91432 17.304V17.3027Z" fill="#2D2D2D"/>
<path d="M18.2137 9.14175L22.3939 2.96799C21.9672 2.71128 21.5188 2.47373 21.0651 2.26172L17.6299 8.83013C17.8317 8.92336 18.0268 9.02808 18.2151 9.14175H18.2137Z" fill="#2D2D2D"/>
<path d="M18.9311 1.46863C18.4434 1.3307 17.9436 1.21575 17.4424 1.12891L16.0391 8.33334C16.2612 8.37165 16.4779 8.42018 16.692 8.48149L18.9324 1.46863H18.9311Z" fill="#2D2D2D"/>
<path d="M19.4907 10.1629L25.2815 5.28164C24.9455 4.92659 24.5839 4.58559 24.2087 4.26758L19.0166 9.71337C19.1832 9.85513 19.3417 10.0046 19.4907 10.1629Z" fill="#2D2D2D"/>
<path d="M13.3732 8.42813L11.4077 1.34375C10.916 1.46508 10.4256 1.61451 9.9502 1.78564L12.7352 8.62226C12.9424 8.5469 13.1551 8.48177 13.3732 8.42813Z" fill="#2D2D2D"/>
<path d="M4.49959 6.45394L9.80679 10.2982C9.95443 10.4055 10.1657 10.385 10.2877 10.2509L10.2917 10.2458C10.4136 10.1117 10.4041 9.91247 10.2687 9.78986L5.43695 5.42327C5.14165 5.15634 4.66891 5.17806 4.40206 5.47052L4.39258 5.48202C4.12573 5.77449 4.17584 6.21894 4.49959 6.45394Z" fill="#2D2D2D"/>
<path d="M7.05674 4.0748L11.0649 9.12595C11.176 9.26644 11.3846 9.29964 11.5404 9.20258L11.5458 9.19875C11.7016 9.10169 11.7503 8.90628 11.6555 8.7543L8.25553 3.32001C8.04693 2.98667 7.58502 2.88705 7.24367 3.10161L7.23148 3.10928C6.89012 3.32384 6.81021 3.76445 7.05538 4.07353L7.05674 4.0748Z" fill="#2D2D2D"/>
<path d="M2.71917 9.4073L8.93122 11.7483C9.1046 11.8135 9.30101 11.7394 9.37958 11.5797L9.38229 11.5734C9.46085 11.4137 9.39448 11.2247 9.22922 11.1417L3.32872 8.16974C2.9657 7.9871 2.51463 8.12887 2.34125 8.48008L2.33447 8.49286C2.16109 8.84407 2.33718 9.2617 2.71917 9.40602V9.4073Z" fill="#2D2D2D"/>
<path d="M18.8047 18.463L23.7326 24.1234C24.1227 23.8207 24.5006 23.495 24.8542 23.154L19.3005 18.0352C19.1433 18.1859 18.9794 18.3289 18.8047 18.4643V18.463Z" fill="#2D2D2D"/>
<path d="M20.4245 11.4745L27.4019 8.25612C27.1797 7.82699 26.9291 7.40553 26.6582 7.00195L20.0967 10.9228C20.2159 11.1003 20.327 11.2843 20.4258 11.4745H20.4245Z" fill="#2D2D2D"/>
<path d="M13.6572 0.969619L14.3657 8.26217C14.451 8.25451 14.5377 8.24812 14.6244 8.24429C14.7639 8.2379 14.9007 8.23663 15.0389 8.23918L15.1689 0.915978C14.8601 0.91087 14.5472 0.915978 14.2316 0.931304C14.0392 0.940244 13.8469 0.953016 13.6572 0.969619Z" fill="#2D2D2D"/>
<path d="M19.9428 17.3026L26.3092 21.4981C26.5991 21.1073 26.8687 20.696 27.1111 20.2784L20.2963 16.7637C20.1879 16.9501 20.0687 17.1289 19.9414 17.3014L19.9428 17.3026Z" fill="#2D2D2D"/>
<path d="M17.3779 19.288L20.4894 25.9982C20.954 25.8066 21.4132 25.5882 21.8534 25.3494L17.9767 19.002C17.7829 19.1067 17.5838 19.2025 17.3779 19.288Z" fill="#2D2D2D"/>
<path d="M15.7676 19.7145L16.8228 26.9713C17.3253 26.9061 17.8279 26.8142 18.3196 26.698L16.4273 19.5957C16.2119 19.6468 15.9924 19.6864 15.7676 19.7158V19.7145Z" fill="#2D2D2D"/>
<path d="M3.2515 5.46303C3.71832 5.46303 4.09675 5.10623 4.09675 4.66609C4.09675 4.22595 3.71832 3.86914 3.2515 3.86914C2.78468 3.86914 2.40625 4.22595 2.40625 4.66609C2.40625 5.10623 2.78468 5.46303 3.2515 5.46303Z" fill="#2D2D2D"/>
<path d="M6.32181 2.72475C6.78914 2.72475 7.16706 2.36842 7.16706 1.9278C7.16706 1.48719 6.78914 1.13086 6.32181 1.13086C5.85449 1.13086 5.47656 1.48719 5.47656 1.9278C5.47656 2.36842 5.85449 2.72475 6.32181 2.72475Z" fill="#2D2D2D"/>
<path d="M1.10519 8.79912C1.56598 8.7286 1.87889 8.31924 1.80409 7.88478C1.72929 7.45033 1.29512 7.1553 0.834331 7.22582C0.373543 7.29635 0.0606346 7.70571 0.135431 8.14016C0.210227 8.57462 0.644405 8.86964 1.10519 8.79912Z" fill="#2D2D2D"/>
</svg>
